<?xml version="1.0" encoding="UTF-8" standalone="no"?> <!DOCTYPE svg PUBLIC "-//W3C//DTD SVG 1.1//EN" "http://www.w3.org/Graphics/SVG/1.1/DTD/svg11.dtd">
<svg height="100%" style="fill-rule:evenodd;clip-rule:evenodd;stroke-linecap:round;stroke-linejoin:round;" xmlns:xlink="http://www.w3.org/1999/xlink" xmlns="http://www.w3.org/2000/svg" xml:space="preserve" width="100%" xmlns:vectornator="http://vectornator.io" version="1.1" viewBox="0 0 492.944 564.135">
<defs>
<path d="M0+0L492.944+0L492.944+564.135L0+564.135L0+0Z" id="Mask"/>
</defs>
<g id="artboard2" vectornator:layerName="artboard2">
<g opacity="1" vectornator:mask="#Mask">
<clipPath id="ClipPath">
<use xlink:href="#Mask" fill="none" overflow="visible"/>
</clipPath>
<g clip-path="url(#ClipPath)">
<g opacity="1">
<path d="M304.507+110.056C304.507+110.056+312.649+101.769+338.864+115.053C353.27+122.352+347.901+131.074+346.476+132.259C343.144+135.033+338.416+133.637+329.164+127.664C319.847+121.651+314.814+124.634+314.814+124.634" opacity="1" fill="#93d8ff"/>
<path stroke="#050000" stroke-width="2.5" d="M304.507+110.056C304.507+110.056+312.649+101.769+338.864+115.053C353.27+122.352+347.901+131.074+346.476+132.259C343.144+135.033+338.416+133.637+329.164+127.664C319.847+121.651+314.814+124.634+314.814+124.634" fill="none" stroke-linecap="butt" opacity="1" stroke-linejoin="miter"/>
<path d="M396.647+358.835C414.392+397.01+414.627+414.548+415.245+428.677C416.317+453.217+408.263+447.188+405.636+444.303C402.219+440.552+377.349+412.994+372.557+405.576C365.989+395.41+362.658+381.868+358.792+379.282" opacity="1" fill="#7f6a65"/>
<path stroke="#000000" stroke-width="2.5" d="M396.647+358.835C414.392+397.01+414.627+414.548+415.245+428.677C416.317+453.217+408.263+447.188+405.636+444.303C402.219+440.552+377.349+412.994+372.557+405.576C365.989+395.41+362.658+381.868+358.792+379.282" fill="none" stroke-linecap="butt" opacity="1" stroke-linejoin="miter"/>
<path d="M215.037+426.466C206.695+467.73+198.448+483.65+192.669+496.557C183.784+516.405+175.703+514.699+173.558+508.1C171.989+503.275+171.75+478.535+169.411+470.02C163.119+447.116+175.962+432.341+174.382+427.967" opacity="1" fill="#7f6a65"/>
<path stroke="#000000" stroke-width="2.5" d="M215.037+426.466C206.695+467.73+198.448+483.65+192.669+496.557C183.784+516.405+175.703+514.699+173.558+508.1C171.989+503.275+171.75+478.535+169.411+470.02C163.119+447.116+175.962+432.341+174.382+427.967" fill="none" stroke-linecap="butt" opacity="1" stroke-linejoin="miter"/>
<path d="M315.903+249.826C357.731+245.068+380.496+248.593+394.555+250.12C416.174+252.468+409.906+262.598+406.34+264.178C401.7+266.232+382.082+270.714+373.529+272.913C361.808+275.928+333.515+285.198+329.84+288.048" opacity="1" fill="#d8ae86"/>
<path stroke="#000000" stroke-width="3" d="M315.903+249.826C357.731+245.068+380.496+248.593+394.555+250.12C416.174+252.468+409.906+262.598+406.34+264.178C401.7+266.232+382.082+270.714+373.529+272.913C361.808+275.928+333.515+285.198+329.84+288.048" fill="none" stroke-linecap="butt" opacity="1" stroke-linejoin="miter"/>
<path d="M101.556+114.139C123.833+73.8759+200.36+33.8199+280.954+87.4209C361.549+141.023+323.217+172.352+328.396+208.872C370.256+243.84+342.92+273.314+342.92+273.314C342.92+273.314+406.751+301.511+412.098+372.86C416.863+436.416+371.692+411.907+355.229+408.598C316.906+400.896+246.923+417.65+208.881+463.642C177.056+502.12+134.23+440.399+122.403+420.598C96.7287+377.615+75.3157+331.381+77.9247+223.381C77.9857+188.533+79.2777+154.402+101.556+114.139" opacity="1" fill="#93d8ff"/>
<path stroke="#000000" stroke-width="2.5" d="M101.556+114.139C123.833+73.8759+200.36+33.8199+280.954+87.4209C361.549+141.023+323.217+172.352+328.396+208.872C370.256+243.84+342.92+273.314+342.92+273.314C342.92+273.314+406.751+301.511+412.098+372.86C416.863+436.416+371.692+411.907+355.229+408.598C316.906+400.896+246.923+417.65+208.881+463.642C177.056+502.12+134.23+440.399+122.403+420.598C96.7287+377.615+75.3157+331.381+77.9247+223.381C77.9857+188.533+79.2777+154.402+101.556+114.139Z" fill="none" stroke-linecap="butt" opacity="1" stroke-linejoin="miter"/>
<path d="M408.478+351.254C408.478+351.254+412.808+374.946+412.795+379.806C412.663+432.101+370.855+411.738+355.229+408.598C316.906+400.896+246.922+417.65+208.881+463.642C177.055+502.12+134.229+440.399+122.403+420.598C96.7281+377.614+75.3161+331.381+77.9241+223.381C77.9851+188.532+79.2781+154.401+101.556+114.139C111.969+95.3182+134.238+76.5422+163.234+67.3572C124.273+100.017+141.648+138.101+180.979+175.901C187.886+182.54+188.545+197.964+180.968+205.12C161.664+205.12+149.922+227.982+167.403+237.207C176.794+242.163+191.046+236.363+202.62+237.207C189.338+240.722+179.55+239.41+172.099+251.555C162.111+267.832+164.936+291.203+171.577+310.772C177.534+328.324+211.348+367.902+241.087+374.946C292.907+387.219+425.403+376.511+399.464+328.038C408.941+346.379+408.478+351.254+408.478+351.254" opacity="1" fill="#5784bf"/>
<path d="M252.229+259.511C252.229+259.511+281.734+264.729+291.098+256.903C291.098+256.903+286.142+264.737+277.132+265.784C264.702+267.229+252.229+259.511+252.229+259.511" opacity="1" fill="#5784bf"/>
<path stroke="#000000" stroke-width="2.5" d="M101.556+114.139C123.833+73.8759+200.36+33.8199+280.954+87.4209C361.549+141.023+323.217+172.352+328.396+208.872C370.256+243.84+342.92+273.314+342.92+273.314C342.92+273.314+406.751+301.511+412.098+372.86C416.863+436.416+371.692+411.907+355.229+408.598C316.906+400.896+246.923+417.65+208.881+463.642C177.056+502.12+134.23+440.399+122.403+420.598C96.7287+377.615+75.3157+331.381+77.9247+223.381C77.9857+188.533+79.2777+154.402+101.556+114.139Z" fill="none" stroke-linecap="butt" opacity="1" stroke-linejoin="miter"/>
<path d="M286.167+170.583C277.165+193.868+288.744+220.041+312.028+229.043C335.313+238.044+361.487+226.466+370.488+203.181C379.49+179.896+367.911+153.723+344.627+144.721C321.342+135.72+295.168+147.298+286.167+170.583" opacity="1" fill="#ffffff"/>
<path stroke="#050000" stroke-width="2.5" d="M286.167+170.583C277.165+193.868+288.744+220.041+312.028+229.043C335.313+238.044+361.487+226.466+370.488+203.181C379.49+179.896+367.911+153.723+344.627+144.721C321.342+135.72+295.168+147.298+286.167+170.583Z" fill="none" stroke-linecap="butt" opacity="1" stroke-linejoin="miter"/>
<path d="M286.167+170.583C277.165+193.868+288.744+220.041+312.028+229.043C316.015+230.584+320.085+231.521+324.139+231.9C291.099+210.011+282.056+184.207+302.891+149.512C295.555+154.495+289.606+161.685+286.167+170.583" opacity="1" fill="#979cbc"/>
<path stroke="#050000" stroke-width="2.5" d="M286.167+170.583C277.165+193.868+288.744+220.041+312.028+229.043C335.313+238.044+361.487+226.466+370.488+203.181C379.49+179.896+367.911+153.723+344.627+144.721C321.342+135.72+295.168+147.298+286.167+170.583Z" fill="none" stroke-linecap="butt" opacity="1" stroke-linejoin="miter"/>
<path d="M142.843+137.232C132.721+163.413+145.74+192.842+171.922+202.963C198.103+213.086+227.533+200.066+237.654+173.884C247.776+147.703+234.757+118.274+208.575+108.152C182.394+98.0307+152.964+111.05+142.843+137.232" opacity="1" fill="#ffffff"/>
<path stroke="#050000" stroke-width="2.5" d="M142.843+137.232C132.721+163.413+145.74+192.842+171.922+202.963C198.103+213.086+227.533+200.066+237.654+173.884C247.776+147.703+234.757+118.274+208.575+108.152C182.394+98.0307+152.964+111.05+142.843+137.232Z" fill="none" stroke-linecap="butt" opacity="1" stroke-linejoin="miter"/>
<path d="M142.843+137.232C132.721+163.413+145.74+192.842+171.922+202.963C178.288+205.424+184.846+206.518+191.272+206.386C153.12+192.337+139.503+158.61+157.3+116.847C151.054+122.154+146.006+129.049+142.843+137.232" opacity="1" fill="#979dc1"/>
<path stroke="#050000" stroke-width="2.5" d="M142.843+137.232C132.721+163.413+145.74+192.842+171.922+202.963C198.103+213.086+227.533+200.066+237.654+173.884C247.776+147.703+234.757+118.274+208.575+108.152C182.394+98.0307+152.964+111.05+142.843+137.232Z" fill="none" stroke-linecap="butt" opacity="1" stroke-linejoin="miter"/>
<path d="M275.707+212.198C275.707+212.198+267.719+224.07+254.672+217.397C239.029+209.397+250.917+192.338+259.85+186.883C268.547+181.571+284.203+186.381+293.824+199.38C304.332+213.577+290.957+223.277+285.097+222.565C281.808+222.166+276.179+217.889+275.707+212.198" opacity="1" fill="#5784bf"/>
<path d="M261.968+205.773C261.968+205.773+236.272+226.055+245.663+243.077C255.055+260.098+291.556+255.253+292.229+246.337C293.011+235.968+278.663+230.164+292.229+211.903C305.794+193.642+261.968+205.773+261.968+205.773" opacity="1" fill="#050000"/>
<path d="M276.441+222.809C276.441+222.809+279.06+229.8+283.337+223.692C287.612+217.583+289.174+208.591+289.174+208.591L272.103+202.83C272.103+202.83+268.469+215.349+268.782+218.747C269.093+222.145+271.57+226.931+276.441+222.809" opacity="1" fill="#ffffff"/>
<path stroke="#ffffff" stroke-width="1" d="M276.441+222.809C276.441+222.809+279.06+229.8+283.337+223.692C287.612+217.583+289.174+208.591+289.174+208.591L272.103+202.83C272.103+202.83+268.469+215.349+268.782+218.747C269.093+222.145+271.57+226.931+276.441+222.809Z" fill="none" stroke-linecap="butt" opacity="1" stroke-linejoin="miter"/>
<path d="M280.707+209.198C280.707+209.198+275.981+217.048+262.748+210.752C249.814+204.597+255.316+192.258+259.436+188.389C266.762+181.512+290.66+182.419+298.824+196.38C306.434+209.39+296.578+218.605+290.718+217.893C287.429+217.494+281.179+214.889+280.707+209.198" opacity="1" fill="#d8ae86"/>
<path stroke="#000000" stroke-width="2" d="M280.707+209.198C280.707+209.198+275.981+217.048+262.748+210.752C249.814+204.597+255.316+192.258+259.436+188.389C266.762+181.512+290.66+182.419+298.824+196.38C306.434+209.39+296.578+218.605+290.718+217.893C287.429+217.494+281.179+214.889+280.707+209.198Z" fill="none" stroke-linecap="butt" opacity="1" stroke-linejoin="miter"/>
<path d="M283.742+192.283C285.201+192.653+287.644+191.048+288.663+190.068C290.097+188.689+292.626+184.836+285.531+183.247C278.437+181.658+277.513+185.403+279.485+188.578C281.457+191.752+282.433+191.951+283.742+192.283" opacity="1" fill="#050000"/>
<path d="M347.481+190.216C346.593+192.512+347.735+195.093+350.031+195.98C352.327+196.867+354.907+195.726+355.794+193.43C356.682+191.135+355.541+188.554+353.245+187.667C350.949+186.779+348.369+187.921+347.481+190.216" opacity="1" fill="#050000"/>
<path stroke="#ffffff" stroke-width="1" d="M347.481+190.216C346.593+192.512+347.735+195.093+350.031+195.98C352.327+196.867+354.907+195.726+355.794+193.43C356.682+191.135+355.541+188.554+353.245+187.667C350.949+186.779+348.369+187.921+347.481+190.216Z" fill="none" stroke-linecap="butt" opacity="1" stroke-linejoin="miter"/>
<path d="M192.652+155.382C191.462+158.461+192.993+161.923+196.072+163.113C199.152+164.304+202.613+162.773+203.804+159.693C204.995+156.613+203.464+153.152+200.384+151.961C197.304+150.771+193.843+152.302+192.652+155.382" opacity="1" fill="#050000"/>
<path stroke="#000000" stroke-width="1" d="M192.652+155.382C191.462+158.461+192.993+161.923+196.072+163.113C199.152+164.304+202.613+162.773+203.804+159.693C204.995+156.613+203.464+153.152+200.384+151.961C197.304+150.771+193.843+152.302+192.652+155.382Z" fill="none" stroke-linecap="butt" opacity="1" stroke-linejoin="miter"/>
<path d="M125.664+277.46C125.664+277.46+133.229+275.503+137.143+279.285C141.056+283.068+137.143+283.721+137.143+283.721C137.143+283.721+142.49+283.329+146.794+286.851C151.099+290.372+151.621+296.895+150.447+298.068C149.273+299.242+152.273+303.285+147.316+305.634C142.36+307.981+134.143+308.634+125.664+318.938C117.186+329.242+113.664+333.808+113.664+333.808C113.664+333.808+110.193+339.342+104.534+335.895C99.3946+332.764+98.0116+317.522+101.012+307.087C104.012+296.651+112.49+281.764+125.664+277.46" opacity="1" fill="#7f6a65"/>
<path stroke="#000000" stroke-width="2.5" d="M125.664+277.46C125.664+277.46+133.229+275.503+137.143+279.285C141.056+283.068+137.143+283.721+137.143+283.721C137.143+283.721+142.49+283.329+146.794+286.851C151.099+290.372+151.621+296.895+150.447+298.068C149.273+299.242+152.273+303.285+147.316+305.634C142.36+307.981+134.143+308.634+125.664+318.938C117.186+329.242+113.664+333.808+113.664+333.808C113.664+333.808+110.193+339.342+104.534+335.895C99.3946+332.764+98.0116+317.522+101.012+307.087C104.012+296.651+112.49+281.764+125.664+277.46Z" fill="none" stroke-linecap="butt" opacity="1" stroke-linejoin="miter"/>
<path d="M136.616+85.846C136.616+85.846+113.034+73.527+100.298+77.783C89.8193+81.285+87.6203+89.506+89.5683+92.514C92.5553+97.125+99.8993+101.332+111.936+97.596C123.974+93.859+128.204+96.753+128.204+96.753" opacity="1" fill="#93d8ff"/>
<path stroke="#050000" stroke-width="2.5" d="M136.616+85.846C136.616+85.846+113.034+73.527+100.298+77.783C89.8193+81.285+87.6203+89.506+89.5683+92.514C92.5553+97.125+99.8993+101.332+111.936+97.596C123.974+93.859+128.204+96.753+128.204+96.753" fill="none" stroke-linecap="butt" opacity="1" stroke-linejoin="miter"/>
<path stroke="#000000" stroke-width="3" d="M268.549+135.913C268.549+135.913+260.418+140.608+255.704+131.625C250.991+122.642+240.17+92.7314+220.366+95.0794" fill="none" stroke-linecap="butt" opacity="1" stroke-linejoin="miter"/>
<path stroke="#000000" stroke-width="3" d="M283.818+141.053C283.818+141.053+287.839+148.395+294.678+143.801C301.517+139.207+309.173+135.123+315.708+136.45" fill="none" stroke-linecap="butt" opacity="1" stroke-linejoin="miter"/>
<path d="M278.805+98.176C278.805+98.176+279.29+94.322+283.952+92.489C286.434+94.95+288.574+98.436+289.591+100.229C290.334+101.538+292.283+105.553+292.18+107.379C292.073+109.297+289.957+113.845+289.017+114.987C287.26+117.119+284.689+119.27+281.111+121.38C279.513+120.618+278.034+118.487+277.298+115.73C283.26+113.135+287.226+109.678+286.496+107.28C285.617+104.386+282.73+101.059+278.805+98.176" opacity="1" fill="#ff0000"/>
<path d="M311.539+86.2903C311.539+86.2903+315.393+86.7793+317.221+91.4433C314.758+93.9223+311.27+96.0593+309.476+97.0753C308.166+97.8163+304.15+99.7613+302.323+99.6573C300.405+99.5483+295.86+97.4283+294.719+96.4863C292.588+94.7283+290.439+92.1553+288.333+88.5753C289.096+86.9773+291.228+85.5003+293.986+84.7683C296.576+90.7313+300.029+94.7003+302.428+93.9743C305.323+93.0973+308.652+90.2133+311.539+86.2903" opacity="1" fill="#ff0000"/>
<path d="M321.949+119.122C321.949+119.122+321.408+122.969+316.72+124.734C314.275+122.238+312.185+118.723+311.193+116.915C310.47+115.596+308.579+111.553+308.708+109.728C308.843+107.811+311.022+103.296+311.979+102.167C313.766+100.06+316.368+97.9463+319.976+95.8883C321.562+96.6723+323.011+98.8243+323.707+101.592C317.71+104.101+313.694+107.501+314.388+109.908C315.226+112.815+318.066+116.184+321.949+119.122" opacity="1" fill="#ff0000"/>
<path d="M290.746+131.284C290.746+131.284+286.874+130.977+284.827+126.405C287.171+123.812+290.554+121.513+292.298+120.414C293.57+119.611+297.491+117.479+299.32+117.497C301.241+117.515+305.882+119.418+307.065+120.305C309.278+121.961+311.545+124.429+313.819+127.905C313.132+129.537+311.071+131.113+308.35+131.975C305.482+126.14+301.846+122.34+299.484+123.179C296.634+124.191+293.444+127.229+290.746+131.284" opacity="1" fill="#ff0000"/>
</g>
</g>
</g>
</g>
</svg>
